HIERARCHY
ROOT joint_0
{
	OFFSET 0.000000 0.000000 0.000000
	CHANNELS 6 Xposition Yposition Zposition Zrotation Yrotation Xrotation 
	JOINT joint_1
	{
		OFFSET 4.520508 -1.939880 86.268921
		CHANNELS 3 Zrotation Yrotation Xrotation
		JOINT joint_2
		{
			OFFSET -4.459717 -0.438538 78.934082
			CHANNELS 3 Zrotation Yrotation Xrotation
			JOINT joint_3
			{
				OFFSET -5.197754 -0.781128 78.796997
				CHANNELS 3 Zrotation Yrotation Xrotation
				JOINT joint_4
				{
					OFFSET 2.952026 -3.710571 109.812988
					CHANNELS 3 Zrotation Yrotation Xrotation
					JOINT joint_5
					{
						OFFSET 24.716797 -5.488037 87.903931
						CHANNELS 3 Zrotation Yrotation Xrotation
						End Site
						{
							OFFSET 0.000000 0.000000 0.000000
						}
					}
				}
				JOINT joint_6
				{
					OFFSET -3.154419 -25.484680 60.934937
					CHANNELS 3 Zrotation Yrotation Xrotation
					JOINT joint_7
					{
						OFFSET -28.997192 -144.472229 -32.671997
						CHANNELS 3 Zrotation Yrotation Xrotation
						JOINT joint_8
						{
							OFFSET 19.867676 -18.614380 -249.897949
							CHANNELS 3 Zrotation Yrotation Xrotation
							JOINT joint_9
							{
								OFFSET 5.281982 -13.816650 -264.993042
								CHANNELS 3 Zrotation Yrotation Xrotation
								End Site
								{
									OFFSET 0.000000 0.000000 0.000000
								}
							}
						}
					}
				}
				JOINT joint_10
				{
					OFFSET 6.494995 21.336792 62.257935
					CHANNELS 3 Zrotation Yrotation Xrotation
					JOINT joint_11
					{
						OFFSET 31.106567 145.200745 -27.007935
						CHANNELS 3 Zrotation Yrotation Xrotation
						JOINT joint_12
						{
							OFFSET 29.119141 24.684326 -248.460083
							CHANNELS 3 Zrotation Yrotation Xrotation
							JOINT joint_13
							{
								OFFSET 21.220093 31.248413 -262.703979
								CHANNELS 3 Zrotation Yrotation Xrotation
								End Site
								{
									OFFSET 0.000000 0.000000 0.000000
								}
							}
						}
					}
				}
			}
		}
	}
	JOINT joint_14
	{
		OFFSET -15.458496 -88.861694 -109.593018
		CHANNELS 3 Zrotation Yrotation Xrotation
		JOINT joint_15
		{
			OFFSET -6.193359 6.837952 -506.710999
			CHANNELS 3 Zrotation Yrotation Xrotation
			JOINT joint_16
			{
				OFFSET -35.096680 13.289795 -435.677025
				CHANNELS 3 Zrotation Yrotation Xrotation
				JOINT joint_17
				{
					OFFSET 158.491211 -33.916565 -71.771002
					CHANNELS 3 Zrotation Yrotation Xrotation
					End Site
					{
						OFFSET 0.000000 0.000000 0.000000
					}
				}
			}
		}
	}
	JOINT joint_18
	{
		OFFSET 23.116943 86.574158 -110.082031
		CHANNELS 3 Zrotation Yrotation Xrotation
		JOINT joint_19
		{
			OFFSET -6.125854 -0.283569 -506.757019
			CHANNELS 3 Zrotation Yrotation Xrotation
			JOINT joint_20
			{
				OFFSET -63.240234 11.589966 -432.537994
				CHANNELS 3 Zrotation Yrotation Xrotation
				JOINT joint_21
				{
					OFFSET 156.074219 -41.487305 -73.077999
					CHANNELS 3 Zrotation Yrotation Xrotation
					End Site
					{
						OFFSET 0.000000 0.000000 0.000000
					}
				}
			}
		}
	}
}
MOTION
Frames: 6
Frame Time: 0.016667
-2172.136230 939.126587 1138.170044 11.944216 -0.792498 0.286919 -1.010753 0.912808 0.214129 -1.030961 -0.166753 -0.075408 -1.016576 0.205377 0.092499 0.038249 0.366543 -0.050433 0.000000 0.000000 0.000000 3.359419 0.323110 -1.137153 0.017561 0.905538 -0.271920 0.017351 -1.231938 -2.185280 0.000000 0.000000 0.000000 -1.256077 0.820289 0.897038 -0.302441 1.675113 -2.238383 -0.175674 -2.667635 2.312103 0.000000 0.000000 0.000000 -1.385336 -1.075143 -0.434329 -1.327677 4.416598 1.657900 -1.237815 -2.534754 -1.102226 0.000000 0.000000 0.000000 -0.311625 -2.065548 -1.176330 -0.326116 4.133166 0.789375 -0.247105 -1.270328 -0.453825 0.000000 0.000000 0.000000 
-2172.298584 939.234009 1138.187012 11.919079 -0.794221 0.286306 -0.991619 0.911727 0.203045 -1.010984 -0.169117 -0.072200 -0.996933 0.207197 0.090065 0.047279 0.406637 -0.073392 0.000000 0.000000 0.000000 3.371329 0.310364 -1.132566 0.019494 0.896865 -0.276134 0.014358 -1.186985 -2.200332 0.000000 0.000000 0.000000 -1.262595 0.777092 0.892746 -0.299156 1.622117 -2.189413 -0.196934 -2.759448 2.195817 0.000000 0.000000 0.000000 -1.376841 -1.068995 -0.441766 -1.319887 4.385299 1.657165 -1.230117 -2.510529 -1.093564 0.000000 0.000000 0.000000 -0.302465 -2.080694 -1.178379 -0.316783 4.155116 0.779297 -0.239919 -1.266555 -0.449461 0.000000 0.000000 0.000000 
-2172.448975 939.344971 1138.198975 11.899769 -0.795740 0.283965 -0.973231 0.908810 0.193126 -0.991810 -0.170683 -0.068732 -0.978170 0.208477 0.086888 0.053260 0.443977 -0.086072 0.000000 0.000000 0.000000 3.380329 0.301497 -1.127831 0.020765 0.891482 -0.279841 0.012306 -1.156205 -2.210898 0.000000 0.000000 0.000000 -1.270331 0.728841 0.886746 -0.296144 1.563539 -2.138910 -0.217952 -2.848527 2.079168 0.000000 0.000000 0.000000 -1.370151 -1.066316 -0.447767 -1.313667 4.363782 1.657374 -1.223927 -2.493267 -1.087073 0.000000 0.000000 0.000000 -0.295293 -2.095004 -1.180057 -0.309460 4.175577 0.771932 -0.234213 -1.263498 -0.445979 0.000000 0.000000 0.000000 
-2172.590820 939.462341 1138.206055 11.886242 -0.797969 0.278867 -0.954571 0.909319 0.185535 -0.972530 -0.174261 -0.065302 -0.959265 0.209709 0.084016 0.055525 0.473728 -0.087190 0.000000 0.000000 0.000000 3.382486 0.298266 -1.123128 0.020588 0.891012 -0.286161 0.012113 -1.152994 -2.212868 0.000000 0.000000 0.000000 -1.281019 0.673392 0.878055 -0.294170 1.498111 -2.091041 -0.237302 -2.929214 1.970953 0.000000 0.000000 0.000000 -1.365304 -1.069343 -0.451896 -1.308911 4.358682 1.659410 -1.219113 -2.485194 -1.083172 0.000000 0.000000 0.000000 -0.290052 -2.107689 -1.181647 -0.304109 4.194639 0.769476 -0.229635 -1.261086 -0.443198 0.000000 0.000000 0.000000 
-2172.721680 939.581238 1138.208984 11.878529 -0.800496 0.272271 -0.937399 0.908704 0.177167 -0.954593 -0.176358 -0.059945 -0.941910 0.209896 0.080234 0.054540 0.500324 -0.077373 0.000000 0.000000 0.000000 3.384299 0.298563 -1.118058 0.019741 0.894127 -0.292118 0.012902 -1.164155 -2.210280 0.000000 0.000000 0.000000 -1.290105 0.612834 0.867441 -0.292560 1.426488 -2.041715 -0.256387 -3.007192 1.862662 0.000000 0.000000 0.000000 -1.362501 -1.075488 -0.454796 -1.305973 4.363668 1.662541 -1.216035 -2.483479 -1.081417 0.000000 0.000000 0.000000 -0.286737 -2.119099 -1.182848 -0.300703 4.212300 0.769357 -0.226536 -1.258708 -0.441119 0.000000 0.000000 0.000000 
-2172.838623 939.705811 1138.207031 11.876766 -0.803986 0.265227 -0.924271 0.907993 0.171004 -0.941040 -0.178030 -0.058248 -0.928597 0.209730 0.078200 0.051387 0.522848 -0.060724 0.000000 0.000000 0.000000 3.384700 0.298383 -1.111663 0.019126 0.896265 -0.296106 0.013758 -1.177460 -2.208957 0.000000 0.000000 0.000000 -1.300894 0.552841 0.857552 -0.292079 1.357747 -2.001913 -0.273085 -3.075119 1.767945 0.000000 0.000000 0.000000 -1.361778 -1.083164 -0.458102 -1.304966 4.377208 1.667147 -1.214754 -2.487427 -1.081686 0.000000 0.000000 0.000000 -0.285137 -2.128224 -1.183775 -0.299008 4.228527 0.768928 -0.225056 -1.257913 -0.440218 0.000000 0.000000 0.000000 
